<svg width="16" height="18" viewBox="0 0 16 18" fill="none" xmlns="http://www.w3.org/2000/svg">
<path opacity="0.3" d="M7.99976 0.458984C12.0205 0.459158 15.2908 3.68687 15.2908 7.68164C15.2906 10.1661 13.8419 12.6184 12.3064 14.4033C11.5294 15.3065 10.7047 16.069 9.97729 16.6113C9.61412 16.8821 9.26503 17.106 8.94995 17.2646C8.6547 17.4133 8.31733 17.5419 7.99976 17.542C7.68205 17.542 7.34396 17.4134 7.04858 17.2646C6.73355 17.106 6.38435 16.882 6.02124 16.6113C5.29381 16.069 4.46911 15.3065 3.69214 14.4033C2.15663 12.6184 0.707932 10.1661 0.707764 7.68164C0.707764 3.68676 3.97887 0.458984 7.99976 0.458984Z" fill="#00C0C9"/>
<circle cx="2.5" cy="2.5" r="2.5" transform="matrix(-1 0 0 1 10.4995 4.8335)" fill="#00C0C9"/>
</svg>
